<svg width="720" height="320" viewBox="0 0 720 320" fill="none" xmlns="http://www.w3.org/2000/svg">
  <defs><linearGradient id="n" x1="0" y1="0" x2="720" y2="320"><stop stop-color="#768da1"/><stop offset=".52" stop-color="#e9e9e5"/><stop offset="1" stop-color="#faf9f5"/></linearGradient></defs><rect width="720" height="320" rx="24" fill="url(#n)"/><path d="M0 246c117-60 209-83 326-28 93 44 182 44 394-34v136H0v-74z" fill="#c9b49d" opacity=".75"/><g opacity=".93"><path d="M38 133c71-20 130 9 164 88l-66 33c-27-58-61-86-116-69l18-52z" fill="#2f4053"/><path d="M166 108c83-15 149 33 180 115l-72 28c-30-66-69-91-129-76l21-67z" fill="#688099"/><path d="M292 96c84-7 143 41 167 124l-76 22c-24-65-62-91-121-80l30-66z" fill="#e6e1da"/></g><rect x="488" y="130" width="164" height="86" rx="8" fill="#fff" opacity=".82"/><text x="570" y="184" text-anchor="middle" fill="#333" font-family="Arial" font-size="27" font-weight="700">МЭДЭЭ</text><path d="M642 199l24 12-24 12" stroke="#555" stroke-width="4"/>
</svg>
