<svg width="1600" height="460" viewBox="0 0 1600 460" fill="none" xmlns="http://www.w3.org/2000/svg">
  <rect width="1600" height="460" fill="#f3f4ec"/><g stroke="#d8e6e8" stroke-width="2"><path d="M0 110h1600M0 230h1600M0 350h1600"/><path d="M70 0v460M210 0v460M350 0v460M490 0v460M630 0v460M770 0v460M910 0v460M1050 0v460M1190 0v460M1330 0v460M1470 0v460"/></g>
  <path d="M84 37c-47 30-48 125 3 145 55 22 105-23 91-70-8-29-37-40-55-30 1-23-14-65-39-45z" fill="#ffb8bd" opacity=".9"/><circle cx="110" cy="120" r="18" fill="#fff" opacity=".36"/>
  <text x="145" y="249" fill="#242424" font-family="Arial" font-size="52">Special Price 감사 이벤트</text><text x="149" y="295" fill="#777" font-family="Arial" font-size="22">Hiliving-ийн онцгой үнийн баяр</text>
  <g transform="translate(880 64)"><rect x="220" y="12" width="170" height="245" rx="3" fill="#111"/><text x="305" y="78" fill="#16a0cf" font-size="29" font-family="Arial">WAVE:UP</text><rect x="260" y="126" width="90" height="70" rx="18" fill="#182331" stroke="#149ecc" stroke-width="5"/><rect x="30" y="178" width="134" height="145" rx="10" fill="#5f4845"/><rect x="160" y="108" width="65" height="215" rx="10" fill="#efd2ca"/><rect x="226" y="68" width="65" height="255" rx="10" fill="#f5f0e4"/><rect x="412" y="134" width="130" height="189" rx="7" fill="#e8e8e5"/><rect x="520" y="156" width="110" height="167" rx="7" fill="#f4f4f2"/><g fill="#777" font-family="Arial" text-anchor="middle"><text x="97" y="250" font-size="17">CHOI</text><text x="192" y="215" font-size="15">Glow</text><text x="258" y="199" font-size="14">mgle</text><text x="477" y="228" font-size="17">META</text><text x="575" y="244" font-size="15">ACTIVE</text></g></g>
</svg>
