<svg width="1600" height="460" viewBox="0 0 1600 460" fill="none" xmlns="http://www.w3.org/2000/svg">
  <defs><linearGradient id="h" x1="0" y1="0" x2="1600" y2="460"><stop stop-color="#eef7f0"/><stop offset="1" stop-color="#dceee2"/></linearGradient></defs><rect width="1600" height="460" fill="url(#h)"/><circle cx="1250" cy="170" r="300" fill="#c4e3ce"/><circle cx="1350" cy="170" r="200" fill="#a8d5b7"/>
  <text x="145" y="195" fill="#315e40" font-family="Arial" font-size="54" font-weight="700">Өдөр бүр эрүүл сонголт</text><text x="149" y="248" fill="#597663" font-family="Arial" font-size="24">Байгалиас танд хүргэх цэвэр арчилгаа</text><rect x="149" y="286" width="178" height="54" rx="27" fill="#3d8b59"/><text x="238" y="320" text-anchor="middle" fill="white" font-family="Arial" font-size="18">Дэлгэрэнгүй</text>
  <g transform="translate(980 55)"><path d="M106 40h300l-18 340H84L106 40z" fill="#fff" stroke="#b5cbbb" stroke-width="4"/><path d="M106 40h300l-35 56H93l13-56z" fill="#39a560"/><circle cx="246" cy="215" r="80" fill="#eff5ef"/><path d="M190 251c40-80 75-88 118-4-42-28-77-25-118 4z" fill="#9fc6aa"/><text x="246" y="138" text-anchor="middle" fill="#5d7563" font-family="Arial" font-size="24">HILIVING</text><text x="246" y="319" text-anchor="middle" fill="#4d6654" font-family="Arial" font-size="21">NATURAL CARE</text></g>
</svg>
