<svg xmlns="http://www.w3.org/2000/svg" width="122.667" height="21.285" viewBox="0 0 122.667 21.285">
    <path data-name="패스 1" d="M54.751 131.057a3.638 3.638 0 0 0-2.9.551 4.243 4.243 0 0 0-1.362 1.883c-.1.272-.164.584 0 .381a3.185 3.185 0 0 1 2.855-1.219c1.129.307 1.214 1.3.78 2.18-.541 1.016-2.166 1.889-2.742 3.885-.1-.653-.513-1.521-2.115-3.248a1.884 1.884 0 0 1-.388-2.5 1.685 1.685 0 0 1 1.383-.414c.14.047.166.01.023-.18a1.758 1.758 0 0 0-1.112-.646 1.544 1.544 0 0 0-1.817 1.165c-.448 1.632 1.168 2.871 1.822 3.38a5.45 5.45 0 0 1 2.069 3.131c.078.274.128.438.274.056a4.051 4.051 0 0 1 1.758-1.99c1.182-.846 2.97-1.989 3.372-3.421a2.452 2.452 0 0 0-1.9-2.994z" transform="translate(-41.8 -130.971)" style="fill:#2857a4"/>
    <path data-name="패스 2" d="M40.329 136.718a3.357 3.357 0 0 0-.374 2.826 4.118 4.118 0 0 0 1.4 1.816c.23.173.511.325.367.115s-1.148-1.623-.289-2.991c.652-.946 1.642-.722 2.354-.062.817.8 1.151 2.557 2.9 3.685-.663-.1-1.634.014-3.8.97a1.985 1.985 0 0 1-2.543-.394 1.557 1.557 0 0 1 .033-1.394c.089-.115.062-.15-.166-.074a1.758 1.758 0 0 0-.975.827 1.455 1.455 0 0 0 .561 2.019c1.44.9 3.142-.213 3.84-.661a5.772 5.772 0 0 1 3.679-.964c.288.012.463.015.14-.233a3.893 3.893 0 0 1-1.374-2.213c-.45-1.339-1-3.326-2.258-4.126a2.559 2.559 0 0 0-3.495.854z" transform="translate(-39.037 -132.061)" style="fill:#dd2207"/>
    <path data-name="패스 3" d="M40.875 152.58a3.578 3.578 0 0 0 2.685 1.2 4.525 4.525 0 0 0 2.257-.758c.246-.164.49-.382.233-.31s-1.983.584-3.062-.63c-.726-.891-.185-1.75.7-2.215 1.061-.521 2.912-.305 4.6-1.6-.315.588-.515 1.528-.27 3.841a1.94 1.94 0 0 1-1.218 2.254 1.671 1.671 0 0 1-1.374-.45c-.082-.119-.126-.1-.128.132a1.666 1.666 0 0 0 .505 1.16 1.585 1.585 0 0 0 2.186.083c1.362-1.073.81-3 .592-3.782a5.335 5.335 0 0 1 .239-3.723c.1-.266.164-.428-.188-.2a4.286 4.286 0 0 1-2.642.619c-1.477.017-3.625-.07-4.828.866a2.406 2.406 0 0 0-.287 3.513z" transform="translate(-39.441 -134.962)" style="fill:#2e9333"/>
    <path data-name="패스 4" d="M57.472 155.7a3.429 3.429 0 0 0 1.989-2.149 4.439 4.439 0 0 0-.075-2.39c-.09-.287-.232-.588-.236-.322s-.017 2.072-1.54 2.694c-1.1.393-1.788-.4-1.984-1.4-.2-1.178.571-2.86-.209-4.889.49.494 1.36.993 3.722 1.527 1.272.3 1.887 1.116 1.867 1.9a1.6 1.6 0 0 1-.858 1.154c-.141.04-.14.087.093.166a1.756 1.756 0 0 0 1.3-.1 1.517 1.517 0 0 0 .736-2.043c-.653-1.646-2.724-1.758-3.566-1.812a5.838 5.838 0 0 1-3.612-1.456c-.233-.186-.376-.3-.255.11a4.159 4.159 0 0 1-.179 2.71c-.425 1.406-1.153 3.411-.587 4.861a2.6 2.6 0 0 0 3.394 1.439z" transform="translate(-44.008 -134.606)" style="fill:#cc0057"/>
    <path data-name="패스 5" d="M65.3 142.145a3.406 3.406 0 0 0-1.435-2.5 4.49 4.49 0 0 0-2.275-.672c-.3-.008-.622.03-.373.117s1.947.658 2.084 2.254c.045 1.136-.908 1.521-1.9 1.392-1.168-.184-2.527-1.411-4.666-1.324.609-.3 1.336-.943 2.536-2.952a2.016 2.016 0 0 1 2.338-1.132 1.591 1.591 0 0 1 .835 1.148c0 .141.04.155.182-.033a1.654 1.654 0 0 0 .292-1.226 1.527 1.527 0 0 0-1.707-1.312c-1.743.09-2.459 1.962-2.758 2.722a5.543 5.543 0 0 1-2.437 2.874c-.244.156-.391.254.029.269a4.223 4.223 0 0 1 2.5 1.005c1.2.83 2.874 2.122 4.406 2.05a2.477 2.477 0 0 0 2.349-2.68z" transform="translate(-44.646 -132.158)" style="fill:#feb300"/>
    <path data-name="패스 6" d="M120 147.575V136.11h-2.424v11.547a2.01 2.01 0 0 0 2.07 2.246h6.917v-1.579h-5.884c-.689-.001-.679-.749-.679-.749z" transform="translate(-64.871 -132.236)" style="fill:#1a1311"/>
    <path data-name="사각형 1" transform="translate(44.938 3.874)" style="fill:#1a1311" d="M0 0h2.456v13.792H0z"/>
    <path data-name="사각형 2" transform="translate(64.533 3.874)" style="fill:#1a1311" d="M0 0h2.455v13.792H0z"/>
    <path data-name="사각형 3" transform="translate(87.462 3.874)" style="fill:#1a1311" d="M0 0h2.457v13.792H0z"/>
    <path data-name="패스 7" d="M151.035 147.112s-.067.2-.212.2a.261.261 0 0 1-.224-.176l-4.284-11.029h-2.83l5.364 12.921s.489 1.334 1.6 1.411c1.132.074 1.564-1.326 1.564-1.326l5.381-13.005h-1.921z" transform="translate(-73.122 -132.236)" style="fill:#1a1311"/>
    <path data-name="패스 8" d="M89.452 142.061h-6.93v-5.951h-2.458v13.79h2.459v-6.281h6.929v6.281h2.456v-13.79h-2.456z" transform="translate(-52.471 -132.236)" style="fill:#1a1311"/>
    <path data-name="패스 9" d="M192.3 136.057h-1.76v9.7l-7.15-9.155a1.5 1.5 0 0 0-1.644-.6c-.72.248-.715 1.224-.715 1.224v12.582h1.757v-9.869l7.152 9.319a1.687 1.687 0 0 0 1.608.72c.771-.2.748-1.344.748-1.344z" transform="translate(-84.306 -132.063)" style="fill:#1a1311"/>
    <path data-name="패스 10" d="M209.987 141.862v1.546h3.275v4.58a4.38 4.38 0 0 1-2.373.643c-2.975 0-4.62-2.336-4.62-5.828s1.645-5.823 4.62-5.823a5.481 5.481 0 0 1 3.4 1.141l.958-1.186a7.3 7.3 0 0 0-4.4-1.347c-4.236 0-7.1 2.889-7.1 7.215s2.861 7.219 7.1 7.219a8.775 8.775 0 0 0 4.791-1.288v-6.873z" transform="translate(-92.968 -131.714)" style="fill:#1a1311"/>
</svg>
