<svg width="1600" height="420" viewBox="0 0 1600 420" fill="none" xmlns="http://www.w3.org/2000/svg">
  <defs><linearGradient id="i" x1="0" y1="0" x2="1600" y2="420"><stop stop-color="#bdefff"/><stop offset=".5" stop-color="#e8faff"/><stop offset="1" stop-color="#a9e4ff"/></linearGradient><pattern id="snow" width="55" height="55" patternUnits="userSpaceOnUse"><path d="M0 28h55M28 0v55M8 8l40 40M48 8L8 48" stroke="#fff" stroke-opacity=".36"/></pattern></defs><rect width="1600" height="420" fill="url(#i)"/><rect width="1600" height="420" fill="url(#snow)"/><path d="M1080 0l-40 129-120-22 55 105-83 72 130 20 24 116h554V0h-520z" fill="#1590d9" opacity=".75"/>
  <rect x="160" y="88" width="145" height="42" rx="8" fill="#f24c75"/><text x="232" y="117" text-anchor="middle" fill="#fff" font-family="Arial" font-size="24" font-weight="700">ТУСГАЙ</text><rect x="315" y="88" width="145" height="42" rx="8" fill="#2457cf"/><text x="388" y="117" text-anchor="middle" fill="#fff" font-family="Arial" font-size="24" font-weight="700">ХЯЗГААРТАЙ</text><text x="160" y="214" fill="#087ac1" font-family="Arial" font-size="72" font-weight="800">ӨВЛИЙН</text><text x="160" y="293" fill="#0756b5" font-family="Arial" font-size="72" font-weight="800">ХЯМДРАЛ</text>
  <g transform="translate(1000 100)"><rect x="210" y="48" width="105" height="205" rx="8" fill="#f6f5f0"/><rect x="330" y="87" width="150" height="166" rx="8" fill="#664b42"/><path d="M15 224c18-139 53-195 159-205 68 37 94 104 75 205H15z" fill="#e9d8b8" stroke="#58483b" stroke-width="13"/><path d="M40 218c20-105 46-146 127-173" stroke="#9e835f" stroke-width="9"/><rect x="155" y="166" width="105" height="87" rx="40" fill="#160f14"/><circle cx="223" cy="205" r="12" fill="#e43e32"/></g>
</svg>
